<?xml version="1.0" encoding="utf-8"?>
<!-- Generator: Adobe Illustrator 23.0.1, SVG Export Plug-In . SVG Version: 6.00 Build 0)  -->
<svg version="1.1" id="Layer_1" xmlns="http://www.w3.org/2000/svg" xmlns:xlink="http://www.w3.org/1999/xlink" x="0px" y="0px"
	 viewBox="0 0 250 100" style="enable-background:new 0 0 250 100;" xml:space="preserve">
<style type="text/css">
	.st0{fill:#FBB040;}
	.st1{fill:#353535;}
</style>
<path class="st0" d="M25.9,74.8l21-24c0.3-0.3,0.3-0.8,0-1.1l-21-24.6c-0.3-0.3-0.4-0.7-0.4-1.1l0-4.3c1.3-1.3,1.8-3.2,1.4-5
	c-0.4-2-2-3.6-4-4c-2.8-0.6-5.6,1.1-6.2,4c-0.4,1.8,0.2,3.7,1.5,5v5.9c0,1.1,0.4,2.2,1.1,3l18,21c0.3,0.3,0.3,0.8,0,1.1L23,67.4
	c-0.4,0.4-1,0.4-1.4,0.1l-11-9.9c-0.2-0.2-0.3-0.4-0.3-0.7v-5.2c2-2.1,2-5.4-0.1-7.5c-2.1-2.1-5.4-2-7.4,0.1c-2,2.1-2,5.4,0,7.4v8.6
	c0,0.2,0.1,0.5,0.3,0.6l14.3,12.9c0.4,0.4,0.7,0.9,0.7,1.5v5.5c-2.1,2-2.2,5.4-0.2,7.5c2,2.1,5.3,2.2,7.4,0.2c1-1,1.6-2.4,1.6-3.9
	c0-1.4-0.5-2.7-1.5-3.7v-5C25.5,75.5,25.7,75.1,25.9,74.8z"/>
<path class="st1" d="M6.4,32.5l11.4,13.3c0.1,0.2,0.2,0.3,0.3,0.5c0.1,0.2,0.1,0.4,0.1,0.6l0,4.3c-2.1,2.1-2.1,5.4,0,7.5
	c2,2.1,5.3,2.1,7.4,0s2.1-5.4,0-7.5c0,0-0.1-0.1-0.1-0.1v-5.9c0-1.6,0.3-1.4-1.1-3c-4.2-4.9-8.4-9.7-12.6-14.6c0-0.1,0-0.2,0-0.4
	c0-2.9-2.3-5.3-5.2-5.3c-2.9,0-5.2,2.3-5.3,5.3C1.3,30,3.6,32.4,6.4,32.5z"/>
<path class="st1" d="M54.5,61.8l6-1.3c0.2,0,0.4,0.1,0.4,0.3c0.9,3.6,4,5.4,9.2,5.4c2.5,0,4.3-0.5,5.7-1.5c1.2-0.8,2-2.1,2-3.6
	c0-1-0.3-2.1-0.9-2.9c-0.6-0.9-1.9-1.6-3.8-2.1l-7.3-1.9c-2-0.4-3.8-1.2-5.6-2.2c-1.2-0.9-2.2-2.1-2.9-3.5c-0.7-1.5-1.1-3.2-1.1-4.8
	c-0.1-3.2,1.3-6.3,3.8-8.2c2.5-2.1,5.8-3.1,9.7-3.1c3.1-0.1,6.1,0.7,8.8,2.2c2.3,1.2,4,3.2,4.8,5.7c0.1,0.2,0,0.4-0.2,0.5
	c0,0,0,0,0,0L77.3,42c-0.2,0-0.4-0.1-0.4-0.2c-1.1-2.7-3.4-4-7-4c-1.8-0.1-3.5,0.4-5,1.3c-1.1,0.8-1.7,2.1-1.7,3.4
	c0,2.2,1.8,3.7,5.3,4.6l6.5,1.6c4,1,6.6,2.4,7.9,4.4c1.3,1.9,2,4.1,2,6.4c0.1,3.5-1.5,6.8-4.3,8.9c-2.8,2.2-6.5,3.2-11,3.2
	c-3.5,0.1-6.9-0.7-10-2.4c-2.7-1.5-4.7-4-5.6-7C54.2,62,54.3,61.8,54.5,61.8C54.5,61.8,54.5,61.8,54.5,61.8z"/>
<path class="st1" d="M101.4,71.1h-6.2c-0.2,0-0.4-0.2-0.4-0.4c0,0,0,0,0,0V33.2c0-0.2,0.2-0.4,0.4-0.4l0,0h6.2
	c0.2,0,0.4,0.2,0.4,0.4l0,0v37.5C101.7,70.9,101.6,71.1,101.4,71.1L101.4,71.1z"/>
<path class="st1" d="M143.5,71.1h-6.9c-0.1,0-0.3-0.1-0.3-0.2l-7.8-18.7c-0.1-0.2-0.3-0.3-0.5-0.2c-0.1,0-0.1,0.1-0.1,0.1l-7,9.2
	c0,0.1-0.1,0.1-0.1,0.2v9.1c0,0.2-0.2,0.4-0.4,0.4l0,0h-6.2c-0.2,0-0.4-0.2-0.4-0.4c0,0,0,0,0,0V33.2c0-0.2,0.2-0.4,0.3-0.4
	c0,0,0,0,0,0h6.2c0.2,0,0.4,0.2,0.4,0.4l0,0v18.5c0,0.2,0.2,0.4,0.4,0.4c0.1,0,0.2-0.1,0.3-0.2c0.5-0.8,1-1.4,1.2-1.8l12.6-17.1
	c0.1-0.1,0.2-0.1,0.3-0.1h6.1c0.2,0,0.4,0.2,0.4,0.4c0,0.1,0,0.2-0.1,0.2l-8.6,11.8c-0.1,0.1-0.1,0.2,0,0.4l10.4,25
	c0.1,0.2,0,0.4-0.2,0.5C143.6,71.1,143.6,71.1,143.5,71.1z"/>
<path class="st1" d="M167,71.1h-6.7c-0.2,0-0.4-0.2-0.4-0.4c0,0,0,0,0,0V39.1c0-0.2-0.2-0.4-0.4-0.4c0,0,0,0,0,0h-9.5
	c-0.2,0-0.4-0.2-0.4-0.4l0,0v-5.2c0-0.2,0.2-0.4,0.4-0.4l0,0h27.1c0.2,0,0.4,0.2,0.4,0.4l0,0v5.2c0,0.2-0.2,0.4-0.4,0.4l0,0h-9.5
	c-0.2,0-0.4,0.2-0.4,0.4c0,0,0,0,0,0v31.6C167.3,70.9,167.2,71.1,167,71.1L167,71.1z"/>
<path class="st1" d="M210.1,71.1h-24.2c-0.2,0-0.4-0.2-0.4-0.4c0,0,0,0,0,0V33.2c0-0.2,0.2-0.4,0.4-0.4l0,0h24
	c0.2,0,0.4,0.2,0.4,0.4c0,0,0,0,0,0v5c0,0.2-0.2,0.4-0.4,0.4l0,0h-17c-0.2,0-0.4,0.2-0.4,0.4l0,0v9.6c0,0.2,0.2,0.4,0.4,0.4l0,0
	h13.5c0.2,0,0.4,0.2,0.4,0.4l0,0V54c0,0.2-0.2,0.4-0.4,0.4l0,0h-13.5c-0.2,0-0.4,0.2-0.4,0.4c0,0,0,0,0,0v10c0,0.2,0.2,0.4,0.4,0.4
	l0,0h17.3c0.2,0,0.4,0.2,0.4,0.4c0,0,0,0,0,0v5.2C210.4,70.9,210.3,71.1,210.1,71.1z"/>
<path class="st1" d="M242,57.8l5.7,0.6c0.2,0,0.3,0.2,0.3,0.4c-0.4,3.5-1.9,6.7-4.4,9.1c-2.6,2.5-5.9,3.7-10.1,3.7
	c-3.5,0-6.3-0.9-8.5-2.6c-2.3-1.9-4-4.3-5-7.1c-1.2-3.2-1.8-6.5-1.8-10c0-5.8,1.4-10.6,4.1-14.2c2.8-3.7,6.6-5.5,11.4-5.5
	c3.5-0.1,6.9,1.1,9.5,3.5c2.4,2.2,4,5.5,4.7,9.6c0,0.2-0.1,0.4-0.3,0.4l-5.7,0.6c-0.2,0-0.4-0.1-0.4-0.3c-1.2-5.6-3.8-8.3-7.7-8.3
	c-2.5,0-4.8,1.3-6,3.6c-1.4,2.4-2.1,5.9-2.1,10.4c0,4.6,0.8,8.1,2.3,10.5c1.3,2.2,3.6,3.6,6.1,3.5c2,0,3.9-0.8,5.2-2.4
	c1.3-1.5,2.2-3.3,2.4-5.3C241.7,58,241.8,57.8,242,57.8z"/>
</svg>
