<?xml version="1.0" encoding="utf-8"?>
<!-- Generator: Adobe Illustrator 24.3.0, SVG Export Plug-In . SVG Version: 6.00 Build 0)  -->
<svg version="1.1" id="Layer_1" xmlns="http://www.w3.org/2000/svg" xmlns:xlink="http://www.w3.org/1999/xlink" x="0px" y="0px"
	 viewBox="0 0 190 90" style="enable-background:new 0 0 190 90;" xml:space="preserve">
<style type="text/css">
	.st0{fill:#1E1E1E;}
	.st1{fill:#FFB600;}
</style>
<path class="st0" d="M69.7,57.7c-1.5,0-3.1-0.2-4.5-0.6c-1.4-0.5-2.7-1.2-3.9-2.2c-0.3-0.3-0.5-0.6-0.7-0.9c-0.2-0.3-0.2-0.7-0.2-1
	c0-0.5,0.2-1.1,0.6-1.5c0.7-0.8,1.9-0.9,2.7-0.2c0.8,0.7,1.7,1.3,2.7,1.7c1.1,0.4,2.2,0.6,3.3,0.6c0.8,0,1.7-0.1,2.4-0.4
	c0.7-0.2,1.3-0.6,1.8-1.2c0.4-0.4,0.7-1,0.7-1.6c0-0.7-0.2-1.3-0.6-1.8c-0.6-0.6-1.2-1-2-1.3c-1.1-0.4-2.2-0.7-3.4-0.8
	c-1.2-0.2-2.3-0.5-3.4-0.9c-0.9-0.3-1.7-0.9-2.5-1.5c-0.7-0.6-1.2-1.3-1.5-2.2c-0.3-0.9-0.5-1.8-0.5-2.8c0-1.4,0.4-2.8,1.2-4
	c0.8-1.1,2-2,3.3-2.5c1.4-0.6,3-0.9,4.5-0.9c1.5,0,2.9,0.2,4.3,0.7c1.2,0.4,2.3,1,3.3,1.8c0.6,0.4,1,1.1,1,1.9
	c0,0.5-0.2,1.1-0.6,1.4c-0.4,0.4-0.9,0.7-1.4,0.7c-0.4,0-0.7-0.1-1-0.3c-0.5-0.4-1-0.7-1.6-1c-0.6-0.3-1.3-0.6-2-0.8
	c-0.6-0.2-1.3-0.3-2-0.3c-0.9,0-1.8,0.1-2.6,0.4c-0.6,0.2-1.2,0.6-1.6,1.1c-0.4,0.5-0.5,1.1-0.5,1.7c0,0.7,0.2,1.3,0.6,1.8
	c0.5,0.5,1.1,0.9,1.8,1.1c0.9,0.3,1.9,0.6,2.8,0.7c1.3,0.2,2.5,0.5,3.8,0.9c1,0.3,1.9,0.8,2.7,1.4c0.7,0.5,1.3,1.2,1.6,2
	c0.4,1,0.6,2.1,0.5,3.1c0,1.4-0.4,2.8-1.3,4c-0.9,1.1-2.1,2-3.4,2.6C72.8,57.3,71.2,57.7,69.7,57.7z"/>
<path class="st0" d="M87.5,55.1c0,0.6-0.2,1.2-0.7,1.6c-0.4,0.4-1,0.6-1.6,0.6c-1.2,0.1-2.2-0.8-2.3-2c0-0.1,0-0.2,0-0.2V34.3
	c0-0.6,0.2-1.2,0.7-1.6c0.4-0.4,1-0.7,1.7-0.6c0.6,0,1.1,0.2,1.5,0.6c0.4,0.4,0.7,1,0.7,1.6L87.5,55.1z"/>
<path class="st0" d="M95.2,57.3c-1.2,0.1-2.2-0.8-2.2-2c0-0.1,0-0.1,0-0.2V34.3c0-0.6,0.2-1.2,0.7-1.6c0.4-0.4,1-0.7,1.7-0.6
	c0.6,0,1.2,0.2,1.6,0.6c0.4,0.4,0.6,1,0.6,1.6v20.8c0,0.6-0.2,1.1-0.6,1.6C96.4,57.1,95.8,57.4,95.2,57.3z M110.7,31.9
	c0.6,0,1.1,0.3,1.4,0.7c0.3,0.4,0.5,0.9,0.6,1.4c0,0.5-0.3,1-0.7,1.4L97,49.9l-0.2-5.2l12.2-12C109.4,32.3,110.1,32,110.7,31.9z
	 M110.3,57.3c-0.6,0-1.3-0.3-1.6-0.8l-8.3-10.9l3.3-3.3l8.6,11.4c0.3,0.4,0.5,0.9,0.5,1.5c0,0.6-0.3,1.2-0.8,1.6
	C111.5,57.1,110.9,57.3,110.3,57.3z"/>
<path class="st0" d="M117.1,36.3c-0.6,0-1.1-0.2-1.6-0.6c-0.4-0.4-0.6-0.9-0.6-1.5c0-0.6,0.2-1.1,0.6-1.5c0.4-0.4,1-0.6,1.6-0.6h16
	c0.6,0,1.1,0.2,1.6,0.6c0.4,0.4,0.6,0.9,0.6,1.5c0,0.6-0.2,1.1-0.6,1.5c-0.4,0.4-1,0.6-1.6,0.6H117.1z M125.1,57.3
	c-0.6,0-1.2-0.2-1.7-0.6c-0.4-0.4-0.7-1-0.7-1.6V34.2h4.7v20.9c0,0.6-0.2,1.2-0.7,1.6C126.3,57.1,125.7,57.4,125.1,57.3L125.1,57.3z
	"/>
<path class="st0" d="M141.2,32.1h12.1c0.6,0,1.1,0.2,1.6,0.6c0.4,0.4,0.7,1,0.6,1.5c0,0.6-0.2,1.1-0.6,1.5c-0.4,0.4-1,0.6-1.6,0.6
	h-10.1l0.3-0.6v7l-0.3-0.3h8.4c0.6,0,1.1,0.2,1.6,0.6c0.4,0.4,0.7,1,0.6,1.5c0,0.6-0.2,1.1-0.6,1.5c-0.4,0.4-1,0.6-1.6,0.6h-8.3
	l0.2-0.3v7.3l-0.3-0.3h10c0.6,0,1.2,0.2,1.6,0.6c0.4,0.4,0.6,0.9,0.6,1.5c0,0.6-0.2,1.1-0.6,1.5c-0.4,0.4-1,0.6-1.6,0.6h-12
	c-1.2,0-2.2-0.9-2.2-2.1c0,0,0-0.1,0-0.1V34.3C139,33.1,140,32.1,141.2,32.1C141.2,32.1,141.2,32.1,141.2,32.1z"/>
<path class="st0" d="M177.3,33.3c0.6,0.3,1,0.8,1.1,1.5c0.1,0.7-0.1,1.3-0.5,1.8c-0.3,0.4-0.7,0.7-1.2,0.7c-0.5,0-1-0.1-1.5-0.3
	c-0.6-0.3-1.2-0.5-1.8-0.6c-0.7-0.2-1.3-0.2-2-0.2c-1.2,0-2.4,0.2-3.5,0.6c-1,0.4-1.9,1-2.6,1.8c-0.7,0.8-1.3,1.7-1.6,2.7
	c-0.4,1.1-0.6,2.3-0.6,3.4c0,1.3,0.2,2.6,0.6,3.8c0.4,1,1,1.9,1.8,2.7c0.7,0.7,1.6,1.3,2.6,1.6c1.1,0.4,2.2,0.5,3.3,0.5
	c0.7,0,1.3-0.1,1.9-0.2c0.7-0.1,1.3-0.3,1.9-0.7c0.5-0.2,1-0.3,1.5-0.2c0.5,0.1,0.9,0.4,1.2,0.8c0.5,0.5,0.6,1.2,0.5,1.8
	c-0.1,0.6-0.5,1.1-1.1,1.4c-0.6,0.3-1.3,0.6-1.9,0.8c-0.7,0.2-1.3,0.4-2,0.5c-0.7,0.1-1.4,0.2-2.1,0.2c-1.7,0-3.3-0.3-4.9-0.8
	c-1.5-0.5-2.9-1.4-4.1-2.4c-1.2-1.1-2.2-2.5-2.9-4c-0.7-1.8-1.1-3.7-1-5.6c0-1.8,0.3-3.5,1-5.1c0.6-1.5,1.5-2.9,2.7-4
	c1.2-1.2,2.6-2.1,4.1-2.7c1.6-0.7,3.4-1,5.2-1c1,0,2.1,0.1,3.1,0.4C175.5,32.6,176.4,32.9,177.3,33.3z"/>
<path class="st0" d="M51.1,35.3c-0.3-1.6-1.5-2.9-3.2-3.2L34,18.2v-2.9c1.5-1.5,1.5-4,0-5.5s-4-1.5-5.5,0c-0.7,0.7-1.2,1.7-1.1,2.8
	c0,0.9,0.4,1.9,1,2.6v3.2L10.7,36l17.6,17.6V55c-1.4,1.6-1.3,4,0.3,5.5s4,1.3,5.5-0.3c0.6-0.7,1-1.6,1-2.6c0-1-0.4-2-1.1-2.7v-3.7
	l-0.1-0.1l-2.8-2.8L18.8,36l12-12l12.6,12.5c0.2,1.3,1,2.3,2.1,2.9c0.5,0.3,1.1,0.4,1.7,0.4c0.2,0,0.5,0,0.7-0.1
	c1.8-0.3,3.2-1.9,3.2-3.8C51.1,35.7,51.1,35.5,51.1,35.3z"/>
<path class="st1" d="M51.1,54L33.5,36.4V35c1.4-1.6,1.3-4-0.3-5.5c-1.6-1.4-4-1.3-5.5,0.3c-0.6,0.7-1,1.6-1,2.6c0,1,0.4,2,1.1,2.7
	v3.7L28,39l2.8,2.8L43,54L31,66L18.4,53.5c-0.2-1.3-1-2.3-2.1-2.9c-0.5-0.3-1.1-0.4-1.7-0.4c-0.2,0-0.5,0-0.7,0.1
	c-1.8,0.3-3.2,1.9-3.2,3.8c0,0.2,0,0.4,0.1,0.7c0.3,1.6,1.5,2.9,3.2,3.2l13.9,13.9v2.9c-1.5,1.5-1.5,4,0,5.5c1.5,1.5,4,1.5,5.5,0
	c0.7-0.7,1.2-1.7,1.1-2.8c0-0.9-0.4-1.9-1-2.6v-3.2L51.1,54"/>
</svg>
