<svg id="Layer_1" data-name="Layer 1" xmlns="http://www.w3.org/2000/svg" viewBox="0 0 550 220"><defs><style>.cls-1{fill:#1e1e1e;}.cls-2{fill:#ffb600;}</style></defs><path class="cls-1" d="M209,144.71a41,41,0,0,1-12.3-1.71,30,30,0,0,1-10.47-6,8.27,8.27,0,0,1-2-2.44,6.38,6.38,0,0,1-.67-2.71,5.61,5.61,0,0,1,1.62-4,5.44,5.44,0,0,1,7.36-.54A30.91,30.91,0,0,0,200,132a23.25,23.25,0,0,0,9,1.55,19.36,19.36,0,0,0,6.65-1.12,13.3,13.3,0,0,0,4.88-3.14A6.15,6.15,0,0,0,222.4,125a7.46,7.46,0,0,0-1.74-5,13.6,13.6,0,0,0-5.43-3.45,41,41,0,0,0-9.2-2.19,41.85,41.85,0,0,1-9.28-2.42,21.2,21.2,0,0,1-6.68-4.1,16,16,0,0,1-4.07-5.86,19.78,19.78,0,0,1-1.35-7.57,17.91,17.91,0,0,1,3.25-10.86,20.32,20.32,0,0,1,8.85-6.83,31.21,31.21,0,0,1,12.32-2.37,36.07,36.07,0,0,1,11.75,1.9,27.44,27.44,0,0,1,8.85,4.86,6.46,6.46,0,0,1,2.71,5.16,5.4,5.4,0,0,1-1.68,3.91,5.09,5.09,0,0,1-3.91,1.76,4.41,4.41,0,0,1-2.71-.87,16.83,16.83,0,0,0-4.21-2.71,34.78,34.78,0,0,0-5.43-2,19.52,19.52,0,0,0-5.42-.84,19.88,19.88,0,0,0-7.09,1.09,9.29,9.29,0,0,0-4.34,2.93A6.72,6.72,0,0,0,196.23,94a7.05,7.05,0,0,0,1.69,4.83,11.73,11.73,0,0,0,4.94,3,57,57,0,0,0,7.73,2,77.63,77.63,0,0,1,10.29,2.53,24.21,24.21,0,0,1,7.38,3.77,14.08,14.08,0,0,1,4.39,5.54,21.63,21.63,0,0,1,1.47,8.46,17.61,17.61,0,0,1-3.5,10.86,22.61,22.61,0,0,1-9.23,7A31.35,31.35,0,0,1,209,144.71Z"/><path class="cls-1" d="M258.48,137.79a15.41,15.41,0,0,1-2.76,4.23,6.18,6.18,0,0,1-4.31,1.71,5.75,5.75,0,0,1-6.15-5.33.65.65,0,0,0-.35-.61V81.32a7.73,7.73,0,0,1,2.1-4.26,6.13,6.13,0,0,1,4.5-1.71,5.9,5.9,0,0,1,4.16,1.71c1.17,1.09,1.83,2.65,2.81,4.26Z"/><path class="cls-1" d="M278.27,143.73a5.74,5.74,0,0,1-6-5.44.69.69,0,0,0-.18-.5V81.32A6.56,6.56,0,0,1,274,77.06a6.15,6.15,0,0,1,4.51-1.71,5.67,5.67,0,0,1,4.34,1.71c1.07,1.15,1.65,2.68,2.79,4.26v56.47c-1.14,1.58-1.74,3.11-2.84,4.23A6,6,0,0,1,278.27,143.73ZM320.5,74.86a4.75,4.75,0,0,1,3.85,1.9,6.29,6.29,0,0,1,1.52,3.88,5.42,5.42,0,0,1-1.76,3.8l-40.87,39.18-.49-14,33-32.57A6.76,6.76,0,0,1,320.5,74.86Zm-1.2,68.87a5.16,5.16,0,0,1-4.39-2.25l-22.55-29.69,8.87-9.09,23.37,30.88a6.69,6.69,0,0,1,1.35,4,5.43,5.43,0,0,1-2,4.45A7,7,0,0,1,319.3,143.73Z"/><path class="cls-1" d="M338.52,87.26a5.89,5.89,0,0,1-4.12-1.49,5.26,5.26,0,0,1-1.65-4,5,5,0,0,1,1.65-3.9,6,6,0,0,1,4.12-1.47h42a5.8,5.8,0,0,1,4.12,1.52,5.23,5.23,0,0,1,1.65,4,5,5,0,0,1-1.65,3.91,5.87,5.87,0,0,1-4.12,1.46Zm21.61,57a6.82,6.82,0,0,1-4.78-1.7,5.5,5.5,0,0,1-1.89-4.22V81.84H367v56.49a5.24,5.24,0,0,1-1.94,4.22,7.14,7.14,0,0,1-5.1,1.7Z"/><path class="cls-1" d="M403.32,76.41h32.73a3.17,3.17,0,0,1,4.26.56A5.45,5.45,0,0,1,442,81.13a5,5,0,0,1-1.71,3.93,14,14,0,0,1-4.26,2.2H408.7l1.75-2.33v19.38l-.76-.76h22.08a5.72,5.72,0,0,1,4.12,1.57,5.28,5.28,0,0,1,1.65,4,4.83,4.83,0,0,1-1.65,3.8,5.89,5.89,0,0,1-4.12,1.47H410l.47-.76v19.7l-1.65.06h27.14a3.27,3.27,0,0,1,4.26.75,5.38,5.38,0,0,1,1.71,4,5.22,5.22,0,0,1-1.71,4,11.84,11.84,0,0,1-4.26,2.12H403.32c-3.22-.51-6.44-6.3-6.44-6.3V81.32c.42-3.23,3-5.9,6.2-4.91Z"/><path class="cls-1" d="M501.13,78.68a5.2,5.2,0,0,1,3,4,6.1,6.1,0,0,1-1.41,5,4.54,4.54,0,0,1-3.28,2,7.47,7.47,0,0,1-4.05-.79,26,26,0,0,0-4.93-1.65,23.66,23.66,0,0,0-5.43-.6,25.67,25.67,0,0,0-9.42,1.66A19.44,19.44,0,0,0,468.51,93a20.43,20.43,0,0,0-4.45,7.27,27.13,27.13,0,0,0-1.52,9.28,28.42,28.42,0,0,0,1.71,10.37,19.84,19.84,0,0,0,4.75,7.32,18.83,18.83,0,0,0,7.11,4.34A26.88,26.88,0,0,0,485,133a29,29,0,0,0,5.26-.49,17.46,17.46,0,0,0,5.1-1.77,7,7,0,0,1,4.05-.67,5.07,5.07,0,0,1,3.36,2.06,5.79,5.79,0,0,1,1.41,5,5.11,5.11,0,0,1-2.95,3.77A34.27,34.27,0,0,1,496,143a38.93,38.93,0,0,1-5.43,1.28,34.54,34.54,0,0,1-5.56.43,38.81,38.81,0,0,1-13.33-2.25,33.48,33.48,0,0,1-11.23-6.62A30.55,30.55,0,0,1,452.66,125,38.71,38.71,0,0,1,450,109.67a36.41,36.41,0,0,1,2.71-13.86A32.47,32.47,0,0,1,460,85a33.63,33.63,0,0,1,11.2-7.22A37.22,37.22,0,0,1,485.25,75a36.07,36.07,0,0,1,8.41,1A34.15,34.15,0,0,1,501.13,78.68Z"/><path class="cls-1" d="M161.1,83.15A11.12,11.12,0,0,0,152,74L111.94,33.9V30.4a11.33,11.33,0,0,0-3.7-18.53,10,10,0,0,0-5.41-.78,11.28,11.28,0,0,0-7.18,18.78v8.05l-46.56,48,46.56,47.71V140a11.22,11.22,0,0,0,4.75,18,10,10,0,0,0,5.52.44,11.27,11.27,0,0,0,9.24-11.06,11,11,0,0,0-3.22-7.87V128.8l-.23-.2-8.13-8.13L68.1,85.2l34.59-34.59,36.39,36.06A11.14,11.14,0,0,0,145.19,95a11,11,0,0,0,6.89,1,11.11,11.11,0,0,0,9.19-11A9,9,0,0,0,161.1,83.15Z"/><path class="cls-2" d="M159.78,134.72,111.94,87V83.78a11.28,11.28,0,0,0-4.79-18.1,10,10,0,0,0-5.52-.44,11.36,11.36,0,0,0-9.31,11.12,11.14,11.14,0,0,0,3.33,7.94v9.39l.24.19,8.21,7.65,35.77,33.19-34.95,32.57L68.13,133.34A10.56,10.56,0,0,0,62,125.47a11.49,11.49,0,0,0-5-1.09,12,12,0,0,0-2,.17,10.71,10.71,0,0,0-9.29,10.34,9.46,9.46,0,0,0,.17,1.76,10.91,10.91,0,0,0,9.21,8.58L95.65,183v7.87c-5.71,5.26-4.12,14.81,4.85,17.69a9,9,0,0,0,3.09.4c6.9-.36,11.28-5.3,11.26-10.66a10.17,10.17,0,0,0-2.91-6.94v-8.71l47.92-48"/></svg>