<svg id="Layer_1" data-name="Layer 1" xmlns="http://www.w3.org/2000/svg" viewBox="0 0 44.69 86.94"><defs><style>.cls-1{fill:#1e1e1e;}.cls-2{fill:#ffb600;}</style></defs><path class="cls-1" d="M72.29,38.38A4.45,4.45,0,0,0,68.8,34.6L53.18,17.92V14.46a4.71,4.71,0,0,0,.23-6.55,4.06,4.06,0,0,0-6.06,0,4.68,4.68,0,0,0,0,6.36v3.84L27.65,39.21,47.36,60.27V62a4.69,4.69,0,0,0,.16,6.54,4.07,4.07,0,0,0,6-.39,4.71,4.71,0,0,0-.39-6.36V57.33l.11-.08-3.12-3.37L36.58,39.21l13.3-14.4,14,15a4.39,4.39,0,0,0,4.23,3.95,3.84,3.84,0,0,0,.76-.07A4.46,4.46,0,0,0,72.28,40a4.54,4.54,0,0,0,.07-.82A5.12,5.12,0,0,0,72.29,38.38Z" transform="translate(-27.65 -6.53)"/><path class="cls-2" d="M72.35,60.79l-20-21.06V38a4.44,4.44,0,0,0,.13-6.54,4.07,4.07,0,0,0-6,.39,5,5,0,0,0,.1,6.36v4.44l.18.08,3.12,3.37L63.42,60.79l-13.3,14.4-14-15a4.39,4.39,0,0,0-4.23-3.95,3.84,3.84,0,0,0-.76.07A4.46,4.46,0,0,0,27.72,60a4.54,4.54,0,0,0-.07.82,5.12,5.12,0,0,0,.06.78A4.45,4.45,0,0,0,31.2,65.4L46.53,82.08v3.46a5,5,0,0,0,.06,6.55,4.06,4.06,0,0,0,6.06,0,4.43,4.43,0,0,0-.3-6.36V81.93l20-21.14" transform="translate(-27.65 -6.53)"/></svg>