<?xml version="1.0" encoding="utf-8"?>
<!-- Generator: Adobe Illustrator 23.0.1, SVG Export Plug-In . SVG Version: 6.00 Build 0)  -->
<svg version="1.1" id="Layer_1" xmlns="http://www.w3.org/2000/svg" xmlns:xlink="http://www.w3.org/1999/xlink" x="0px" y="0px"
	 viewBox="0 0 900 900" style="enable-background:new 0 0 900 900;" xml:space="preserve">
<style type="text/css">
	.st0{fill:#FBB040;}
	.st1{fill:#FFFFFF;}
	.st2{display:none;}
	.st3{display:inline;fill:#FFFFFF;}
</style>
<title>logosiktec</title>
<g>
	<path class="st0" d="M486.5,684.6l200.4-225.5c2.5-3,2.5-7.3,0-10.3L486.5,217.9c-2.5-2.8-3.9-6.4-3.9-10.2l-0.4-40.5
		c12.3-12.2,17.4-29.9,13.5-46.7c-4.2-18.8-19-33.4-37.8-37.4c-26.8-6.1-53.5,10.7-59.6,37.5c-3.9,17.2,1.6,35.2,14.5,47.3v55.3
		c0,10.5,3.8,20.7,10.7,28.6l172.3,197.4c2.5,3,2.5,7.3,0,10.3L458.5,614.8c-3.4,3.8-9.1,4.2-12.9,0.9l-105.2-92.6
		c-1.9-1.6-2.9-4-2.9-6.5v-48.5c19.3-19.6,19-51.2-0.6-70.4c-19.6-19.3-51.2-19-70.4,0.6c-19.1,19.4-19.1,50.5,0,69.8v81
		c0,2.3,1,4.4,2.7,5.9l137,120.8c4,3.6,6.3,8.7,6.2,14.1v51.3c-20,18.8-20.9,50.3-2.1,70.3c18.8,20,50.3,20.9,70.3,2.1
		c10-9.4,15.6-22.5,15.6-36.2c0-13-5-25.4-14.1-34.7v-47.4C482.1,691.4,483.7,687.5,486.5,684.6z"/>
	<path class="st1" d="M299.7,287.3l108.5,125c1.3,1.4,2.2,3,2.9,4.8c0.6,1.8,1,3.6,1,5.4l0.4,40.5c-19.6,19.4-19.8,51-0.4,70.7
		c19.4,19.6,51,19.8,70.7,0.4c19.6-19.4,19.8-51,0.4-70.7c-0.4-0.4-0.8-0.8-1.2-1.2V407c0-15.3,2.7-13.1-10.7-28.4
		c-39.8-45.8-79.8-91.5-120-137.2c0-1.2,0-2.3,0-3.5c0.2-27.5-21.9-50-49.4-50.3s-50,21.9-50.3,49.4
		C251.5,264,272.7,286.2,299.7,287.3z"/>
</g>
<g class="st2">
	<path class="st3" d="M79.1,791.6l23.5-4.2c0.7-0.1,1.5,0.3,1.7,0.9c3.6,11.8,15.7,17.7,36.1,17.8c9.7,0,17.1-1.6,22.3-4.8
		c4.8-2.6,7.7-7.1,7.8-11.9c0-3.4-1.2-6.8-3.5-9.6c-2.4-3-7.4-5.3-15-7l-28.8-6.3c-7.7-1.4-15.1-3.9-21.9-7.3
		c-4.9-3-8.8-7-11.3-11.6c-2.8-5-4.3-10.5-4.2-16c-0.4-10.6,5.2-20.7,15-27.1c9.9-6.8,22.6-10.2,38.2-10.3
		c12.1-0.2,24.1,2.3,34.8,7.1c9,3.9,15.9,10.6,19,18.8c0.2,0.6-0.2,1.3-0.9,1.5c0,0-0.1,0-0.1,0l-23.2,4.8c-0.7,0.1-1.4-0.2-1.6-0.7
		c-4.2-8.9-13.3-13.3-27.4-13.3c-6.9-0.4-13.8,1.2-19.5,4.4c-4.2,2.7-6.6,6.8-6.5,11.3c0,7.2,7,12.3,21,15.2l25.6,5.4
		c15.5,3.3,26,8.1,31.3,14.5c5.2,6.1,8,13.5,8,21.1c0.5,11.5-5.8,22.5-16.7,29.3c-11.2,7.1-25.6,10.7-43.3,10.7
		c-13.7,0.3-27.2-2.4-39.3-7.8c-10.7-4.9-18.6-13.3-21.9-23.2C77.8,792.5,78.3,791.8,79.1,791.6C79.1,791.6,79.1,791.6,79.1,791.6z"
		/>
	<path class="st3" d="M263.3,822.3h-24.3c-0.8,0-1.4-0.5-1.4-1.2c0,0,0,0,0,0V697.3c0-0.7,0.6-1.2,1.4-1.2l0,0h24.3
		c0.8,0,1.4,0.5,1.4,1.2l0,0V821C264.7,821.7,264,822.3,263.3,822.3L263.3,822.3z"/>
	<path class="st3" d="M429.1,822.3h-27.3c-0.6,0-1.1-0.3-1.3-0.7L370,759.9c-0.3-0.6-1.2-0.9-1.9-0.6c-0.2,0.1-0.4,0.2-0.5,0.4
		l-27.4,30.5c-0.2,0.2-0.3,0.5-0.3,0.7V821c0,0.7-0.6,1.2-1.4,1.2l0,0h-24.3c-0.8,0-1.4-0.5-1.4-1.2c0,0,0,0,0,0V697.3
		c0-0.7,0.6-1.2,1.4-1.2c0,0,0,0,0.1,0h24.3c0.8,0,1.4,0.5,1.4,1.2l0,0v61c0,0.7,0.6,1.2,1.4,1.2c0.5,0,0.9-0.2,1.2-0.6
		c2.1-2.8,3.8-4.7,4.9-6l49.6-56.4c0.3-0.3,0.7-0.5,1.1-0.5h24c0.8,0,1.4,0.6,1.4,1.2c0,0.3-0.1,0.5-0.3,0.7l-33.6,39
		c-0.2,0.4-0.2,0.8,0,1.2l40.7,82.4c0.3,0.6,0,1.3-0.8,1.6C429.4,822.2,429.3,822.3,429.1,822.3z"/>
	<path class="st3" d="M521.2,822.3h-26.3c-0.8,0-1.4-0.5-1.4-1.2c0,0,0,0,0,0V716.8c0-0.7-0.6-1.2-1.4-1.2c0,0,0,0,0,0h-37.2
		c-0.8,0-1.4-0.5-1.4-1.2l0,0v-17.1c0-0.7,0.6-1.2,1.4-1.2l0,0h106.6c0.8,0,1.4,0.5,1.4,1.2l0,0v17.1c0,0.7-0.6,1.2-1.4,1.2l0,0H524
		c-0.8,0-1.4,0.5-1.4,1.2c0,0,0,0,0,0V821C522.6,821.7,521.9,822.3,521.2,822.3L521.2,822.3z"/>
	<path class="st3" d="M690.7,822.3h-95.1c-0.8,0-1.4-0.5-1.4-1.2c0,0,0,0,0,0V697.3c0-0.7,0.6-1.2,1.4-1.2l0,0h94.2
		c0.8,0,1.4,0.5,1.4,1.2c0,0,0,0,0,0.1v16.3c0,0.7-0.6,1.2-1.4,1.2l0,0h-66.9c-0.8,0-1.4,0.5-1.4,1.2l0,0v31.8
		c0,0.7,0.6,1.2,1.4,1.2l0,0H676c0.8,0,1.4,0.5,1.4,1.2l0,0v15.9c0,0.7-0.6,1.2-1.4,1.2l0,0h-53.3c-0.8,0-1.4,0.5-1.4,1.2
		c0,0,0,0,0,0v32.9c0,0.7,0.6,1.2,1.4,1.2l0,0h67.9c0.8,0,1.4,0.5,1.4,1.2c0,0,0,0,0,0V821C692.1,821.7,691.5,822.3,690.7,822.3z"/>
	<path class="st3" d="M816.1,778.6l22.3,2.1c0.8,0.1,1.3,0.7,1.3,1.4c-1.4,11.4-7.6,22-17.3,30c-10.1,8.2-23.3,12.2-39.6,12.2
		c-13.8,0-24.9-2.9-33.5-8.7c-9-6.2-15.8-14.3-19.9-23.6c-4.7-10.5-7.1-21.6-7-32.8c0-19.2,5.4-34.9,16.2-46.9
		c10.8-12,25.8-18.1,45-18.1c13.8-0.4,27.2,3.7,37.5,11.6c9.6,7.4,15.8,18,18.5,31.8c0.1,0.7-0.5,1.3-1.3,1.4l-22.4,2
		c-0.7,0.1-1.4-0.4-1.5-1c-4.7-18.3-14.9-27.5-30.4-27.5c-9.9-0.1-19,4.4-23.7,11.9c-5.6,7.9-8.4,19.4-8.4,34.4
		c0,15.3,3,26.8,9,34.6c5,7.3,14.1,11.7,24,11.7c7.8,0.1,15.2-2.8,20.3-7.8c5.3-4.8,8.6-11,9.4-17.6
		C814.8,779,815.4,778.6,816.1,778.6z"/>
</g>
</svg>
